<svg class="animated" id="freepik_stories-logic" xmlns="http://www.w3.org/2000/svg" viewBox="0 0 500 500" version="1.1" xmlns:xlink="http://www.w3.org/1999/xlink" xmlns:svgjs="http://svgjs.com/svgjs"><style>svg#freepik_stories-logic:not(.animated) .animable {opacity: 0;}svg#freepik_stories-logic.animated #freepik--background-complete--inject-93 {animation: 1s 1 forwards cubic-bezier(.36,-0.01,.5,1.38) zoomIn;animation-delay: 0s;}svg#freepik_stories-logic.animated #freepik--Shadow--inject-93 {animation: 1.5s Infinite  linear floating;animation-delay: 0s;}svg#freepik_stories-logic.animated #freepik--Puzzle--inject-93 {animation: 1s 1 forwards cubic-bezier(.36,-0.01,.5,1.38) zoomIn,1.5s Infinite  linear wind;animation-delay: 0s,1s;}svg#freepik_stories-logic.animated #freepik--speech-bubble--inject-93 {animation: 1.5s Infinite  linear heartbeat;animation-delay: 0s;}svg#freepik_stories-logic.animated #freepik--Character--inject-93 {animation: 1s 1 forwards cubic-bezier(.36,-0.01,.5,1.38) slideLeft,1.5s Infinite  linear floating;animation-delay: 0s,1s;}            @keyframes zoomIn {                0% {                    opacity: 0;                    transform: scale(0.5);                }                100% {                    opacity: 1;                    transform: scale(1);                }            }                    @keyframes floating {                0% {                    opacity: 1;                    transform: translateY(0px);                }                50% {                    transform: translateY(-10px);                }                100% {                    opacity: 1;                    transform: translateY(0px);                }            }                    @keyframes wind {                0% {                    transform: rotate( 0deg );                }                25% {                    transform: rotate( 1deg );                }                75% {                    transform: rotate( -1deg );                }            }                    @keyframes heartbeat {                0% {                    transform: scale(1);                }                10% {                    transform: scale(1.1);                }                30% {                    transform: scale(1);                }                40% {                    transform: scale(1);                }                50% {                    transform: scale(1.1);                }                60% {                    transform: scale(1);                }                100% {                    transform: scale(1);                }            }                    @keyframes slideLeft {                0% {                    opacity: 0;                    transform: translateX(-30px);                }                100% {                    opacity: 1;                    transform: translateX(0);                }            }        </style><g id="freepik--background-complete--inject-93" class="animable" style="transform-origin: 250px 228.23px;"><rect y="382.4" width="500" height="0.25" style="fill: rgb(235, 235, 235); transform-origin: 250px 382.525px;" id="el58y3mbtra9j" class="animable"></rect><rect x="416.78" y="398.49" width="33.12" height="0.25" style="fill: rgb(235, 235, 235); transform-origin: 433.34px 398.615px;" id="elradvfnitfs" class="animable"></rect><rect x="322.53" y="401.21" width="8.69" height="0.25" style="fill: rgb(235, 235, 235); transform-origin: 326.875px 401.335px;" id="el1qgqouxzl84" class="animable"></rect><rect x="396.59" y="389.21" width="19.19" height="0.25" style="fill: rgb(235, 235, 235); transform-origin: 406.185px 389.335px;" id="elxsjqb7jk2rm" class="animable"></rect><rect x="52.46" y="390.89" width="43.19" height="0.25" style="fill: rgb(235, 235, 235); transform-origin: 74.055px 391.015px;" id="elq9nyymqdso8" class="animable"></rect><rect x="104.56" y="390.89" width="6.33" height="0.25" style="fill: rgb(235, 235, 235); transform-origin: 107.725px 391.015px;" id="eln36lr16puye" class="animable"></rect><rect x="131.47" y="395.11" width="93.68" height="0.25" style="fill: rgb(235, 235, 235); transform-origin: 178.31px 395.235px;" id="elioreiirqv5e" class="animable"></rect><path d="M237,337.8H43.91a5.71,5.71,0,0,1-5.7-5.71V60.66A5.71,5.71,0,0,1,43.91,55H237a5.71,5.71,0,0,1,5.71,5.71V332.09A5.71,5.71,0,0,1,237,337.8ZM43.91,55.2a5.46,5.46,0,0,0-5.45,5.46V332.09a5.46,5.46,0,0,0,5.45,5.46H237a5.47,5.47,0,0,0,5.46-5.46V60.66A5.47,5.47,0,0,0,237,55.2Z" style="fill: rgb(235, 235, 235); transform-origin: 140.46px 196.4px;" id="elind8oorzrpb" class="animable"></path><path d="M453.31,337.8H260.21a5.72,5.72,0,0,1-5.71-5.71V60.66A5.72,5.72,0,0,1,260.21,55h193.1A5.71,5.71,0,0,1,459,60.66V332.09A5.71,5.71,0,0,1,453.31,337.8ZM260.21,55.2a5.47,5.47,0,0,0-5.46,5.46V332.09a5.47,5.47,0,0,0,5.46,5.46h193.1a5.47,5.47,0,0,0,5.46-5.46V60.66a5.47,5.47,0,0,0-5.46-5.46Z" style="fill: rgb(235, 235, 235); transform-origin: 356.75px 196.4px;" id="elesujukpwbsp" class="animable"></path><rect x="67.38" y="127.47" width="124.78" height="128.93" style="fill: rgb(235, 235, 235); transform-origin: 129.77px 191.935px;" id="el02sktbqnwxfe" class="animable"></rect><rect x="71.74" y="127.47" width="124.78" height="128.93" style="fill: rgb(240, 240, 240); transform-origin: 134.13px 191.935px;" id="elnjz62mqb7y" class="animable"></rect><rect x="74.88" y="130.52" width="118.33" height="122.88" style="fill: rgb(224, 224, 224); transform-origin: 134.045px 191.96px;" id="el0q237sj60t5g" class="animable"></rect><rect x="74.88" y="130.52" width="115.37" height="122.88" style="fill: rgb(245, 245, 245); transform-origin: 132.565px 191.96px;" id="elwbgxqetqubl" class="animable"></rect><rect x="131.42" y="130.52" width="2.34" height="122.88" style="fill: rgb(235, 235, 235); transform-origin: 132.59px 191.96px;" id="elkp4iglywzpb" class="animable"></rect><polygon points="117.93 130.52 85.05 253.4 81.89 253.4 114.78 130.52 117.93 130.52" style="fill: rgb(255, 255, 255); transform-origin: 99.91px 191.96px;" id="elguvfvuu473" class="animable"></polygon><rect x="132.76" y="128.63" width="2.01" height="127.13" style="fill: rgb(240, 240, 240); transform-origin: 133.765px 192.195px;" id="elhtu9ptmjwdm" class="animable"></rect><polygon points="106 130.52 74.88 246.81 74.88 182.89 88.89 130.52 106 130.52" style="fill: rgb(255, 255, 255); transform-origin: 90.44px 188.665px;" id="elky9116wu1ji" class="animable"></polygon><polygon points="190.25 141.67 190.25 153.47 163.51 253.4 160.35 253.4 190.25 141.67" style="fill: rgb(255, 255, 255); transform-origin: 175.3px 197.535px;" id="elwbsgrar4zd" class="animable"></polygon><polygon points="190.25 165.49 190.25 229.41 183.84 253.4 166.73 253.4 190.25 165.49" style="fill: rgb(255, 255, 255); transform-origin: 178.49px 209.445px;" id="elemvr6es7p2q" class="animable"></polygon><path d="M121.47,296.27h12.67v-.84c0-1.66-1.86-3-4.06-2.88l-5,.2c-2,.08-3.64,1.35-3.64,2.88Z" style="fill: rgb(240, 240, 240); transform-origin: 127.79px 294.406px;" id="elfk6ilypqrq6" class="animable"></path><path d="M146.55,296.7h16.76L166,273.3a1.65,1.65,0,0,0-1.64-1.56H153.11a1.64,1.64,0,0,0-1.64,1.56Z" style="fill: rgb(230, 230, 230); transform-origin: 156.275px 284.22px;" id="elfu5e3gyn1cu" class="animable"></path><path d="M121,237.32h4.18l4.71,44.2h-4.19a1.44,1.44,0,0,1-1.39-1.26l-4.43-41.68A1.11,1.11,0,0,1,121,237.32Z" style="fill: rgb(230, 230, 230); transform-origin: 124.88px 259.42px;" id="elk929sx6mge" class="animable"></path><path d="M127.44,281.52h62.71a1.1,1.1,0,0,0,1.12-1.26l-4.43-41.68a1.44,1.44,0,0,0-1.39-1.26H122.74a1.11,1.11,0,0,0-1.12,1.26l4.43,41.68A1.44,1.44,0,0,0,127.44,281.52Z" style="fill: rgb(235, 235, 235); transform-origin: 156.446px 259.42px;" id="elt7vcsbiylb" class="animable"></path><path d="M128.61,277.44h59.14a1,1,0,0,0,1-1.1L184.86,240a1.25,1.25,0,0,0-1.21-1.09H124.51a1,1,0,0,0-1,1.09l3.87,36.37A1.25,1.25,0,0,0,128.61,277.44Z" style="fill: rgb(250, 250, 250); transform-origin: 156.13px 258.175px;" id="elkt76vwe7ib" class="animable"></path><path d="M145.92,294.89h20.62a.9.9,0,0,1,.91.9h0a.91.91,0,0,1-.91.91H145.92a.91.91,0,0,1-.91-.91h0A.9.9,0,0,1,145.92,294.89Z" style="fill: rgb(230, 230, 230); transform-origin: 156.23px 295.795px;" id="eldq0pyytbrg" class="animable"></path><g id="elty3y4t9a0j"><rect x="95.15" y="296.18" width="51.05" height="7.7" style="fill: rgb(230, 230, 230); transform-origin: 120.675px 300.03px; transform: rotate(180deg);" class="animable"></rect></g><path d="M237.41,382.19h1.27a.29.29,0,0,0,.29-.29l2-78H235.1l2,78A.31.31,0,0,0,237.41,382.19Z" style="fill: rgb(230, 230, 230); transform-origin: 238.035px 343.045px;" id="elwf053weplo8" class="animable"></path><polygon points="282.85 382.19 285.79 382.19 277.48 303.88 271.59 303.88 282.85 382.19" style="fill: rgb(240, 240, 240); transform-origin: 278.69px 343.035px;" id="elz3bme6woqx8" class="animable"></polygon><polygon points="93.16 382.19 93.16 382.19 104.44 303.88 98.56 303.88 90.25 382.19 93.16 382.19" style="fill: rgb(230, 230, 230); transform-origin: 97.345px 343.035px;" id="el1n7kd5itl6s" class="animable"></polygon><g id="elzr1siyhb6w"><rect x="131.64" y="296.18" width="149.24" height="7.7" style="fill: rgb(245, 245, 245); transform-origin: 206.26px 300.03px; transform: rotate(180deg);" class="animable"></rect></g><polygon points="136.3 382.19 139.68 382.19 139.68 382.19 140.94 303.88 135.05 303.88 136.3 382.19" style="fill: rgb(240, 240, 240); transform-origin: 137.995px 343.035px;" id="elb9i5nzx1h9p" class="animable"></polygon><path d="M184,294.79h1.57a.3.3,0,0,0,.3-.3v-1.65a.31.31,0,0,0-.3-.3h-1.12a.29.29,0,0,0-.29.22l-.44,1.66A.29.29,0,0,0,184,294.79Z" style="fill: rgb(245, 245, 245); transform-origin: 184.789px 293.665px;" id="elreogcbclke" class="animable"></path><path d="M181.81,294.79h1.57a.3.3,0,0,0,.3-.3v-1.65a.31.31,0,0,0-.3-.3h-1.13a.29.29,0,0,0-.28.22l-.45,1.66A.3.3,0,0,0,181.81,294.79Z" style="fill: rgb(245, 245, 245); transform-origin: 182.596px 293.665px;" id="el1sjhnyo9308" class="animable"></path><path d="M179.65,294.79h1.57a.29.29,0,0,0,.29-.3v-1.65a.3.3,0,0,0-.29-.3h-1.13a.31.31,0,0,0-.29.22l-.44,1.66A.3.3,0,0,0,179.65,294.79Z" style="fill: rgb(245, 245, 245); transform-origin: 180.431px 293.665px;" id="eltkuojok0c9e" class="animable"></path><path d="M177.49,294.79h1.56a.29.29,0,0,0,.3-.3v-1.65a.3.3,0,0,0-.3-.3h-1.12a.31.31,0,0,0-.29.22l-.44,1.66A.29.29,0,0,0,177.49,294.79Z" style="fill: rgb(245, 245, 245); transform-origin: 178.269px 293.665px;" id="elhxexchuz7x" class="animable"></path><path d="M175.33,294.79h1.56a.29.29,0,0,0,.3-.3v-1.65a.3.3,0,0,0-.3-.3h-1.12a.31.31,0,0,0-.29.22l-.44,1.66A.29.29,0,0,0,175.33,294.79Z" style="fill: rgb(245, 245, 245); transform-origin: 176.109px 293.665px;" id="elmvxszjtjce" class="animable"></path><path d="M173.17,294.79h1.56a.29.29,0,0,0,.3-.3v-1.65a.3.3,0,0,0-.3-.3h-1.12a.3.3,0,0,0-.29.22l-.44,1.66A.29.29,0,0,0,173.17,294.79Z" style="fill: rgb(245, 245, 245); transform-origin: 173.949px 293.665px;" id="elsl9lq5e2nbt" class="animable"></path><path d="M171,294.79h1.56a.29.29,0,0,0,.3-.3v-1.65a.3.3,0,0,0-.3-.3h-1.12a.29.29,0,0,0-.29.22l-.44,1.66A.29.29,0,0,0,171,294.79Z" style="fill: rgb(245, 245, 245); transform-origin: 171.779px 293.665px;" id="el2qhv9r7ivev" class="animable"></path><path d="M168.85,294.79h1.56a.3.3,0,0,0,.3-.3v-1.65a.31.31,0,0,0-.3-.3h-1.12a.29.29,0,0,0-.29.22l-.44,1.66A.29.29,0,0,0,168.85,294.79Z" style="fill: rgb(245, 245, 245); transform-origin: 169.629px 293.665px;" id="el9jvtzjb55x6" class="animable"></path><path d="M166.68,294.79h1.57a.3.3,0,0,0,.3-.3v-1.65a.31.31,0,0,0-.3-.3h-1.12a.29.29,0,0,0-.29.22l-.44,1.66A.29.29,0,0,0,166.68,294.79Z" style="fill: rgb(245, 245, 245); transform-origin: 167.469px 293.665px;" id="elo94ev5wtygp" class="animable"></path><path d="M164.52,294.79h1.57a.3.3,0,0,0,.3-.3v-1.65a.31.31,0,0,0-.3-.3H165a.29.29,0,0,0-.28.22l-.44,1.66A.29.29,0,0,0,164.52,294.79Z" style="fill: rgb(245, 245, 245); transform-origin: 165.329px 293.665px;" id="el4rrxunbe8h3" class="animable"></path><path d="M162.36,294.79h1.57a.3.3,0,0,0,.3-.3v-1.65a.31.31,0,0,0-.3-.3H162.8a.29.29,0,0,0-.28.22l-.45,1.66A.3.3,0,0,0,162.36,294.79Z" style="fill: rgb(245, 245, 245); transform-origin: 163.146px 293.665px;" id="el88wic1u4p0w" class="animable"></path><path d="M160.2,294.79h1.57a.29.29,0,0,0,.29-.3v-1.65a.3.3,0,0,0-.29-.3h-1.13a.31.31,0,0,0-.29.22l-.44,1.66A.3.3,0,0,0,160.2,294.79Z" style="fill: rgb(245, 245, 245); transform-origin: 160.981px 293.665px;" id="el0d0a8fjadl5" class="animable"></path><path d="M158,294.79h1.56a.29.29,0,0,0,.3-.3v-1.65a.3.3,0,0,0-.3-.3h-1.12a.31.31,0,0,0-.29.22l-.44,1.66A.29.29,0,0,0,158,294.79Z" style="fill: rgb(245, 245, 245); transform-origin: 158.779px 293.665px;" id="elncx3bhjqc8" class="animable"></path><path d="M155.88,294.79h1.56a.29.29,0,0,0,.3-.3v-1.65a.3.3,0,0,0-.3-.3h-1.12a.3.3,0,0,0-.29.22l-.44,1.66A.29.29,0,0,0,155.88,294.79Z" style="fill: rgb(245, 245, 245); transform-origin: 156.659px 293.665px;" id="elmsnirzlt3z" class="animable"></path><path d="M153.72,294.79h1.56a.29.29,0,0,0,.3-.3v-1.65a.3.3,0,0,0-.3-.3h-1.12a.3.3,0,0,0-.29.22l-.44,1.66A.29.29,0,0,0,153.72,294.79Z" style="fill: rgb(245, 245, 245); transform-origin: 154.499px 293.665px;" id="elohy73r30zcq" class="animable"></path><g id="el1rcelcoyfad"><rect x="152.14" y="293.67" width="34.97" height="2.6" style="fill: rgb(235, 235, 235); transform-origin: 169.625px 294.97px; transform: rotate(180deg);" class="animable"></rect></g><g id="elvoch4oikikt"><rect x="285.3" y="88.36" width="125.56" height="161.58" style="fill: rgb(224, 224, 224); transform-origin: 348.08px 169.15px; transform: rotate(90deg);" class="animable"></rect></g><g id="el8beb7eni9pj"><rect x="269.53" y="108.61" width="157.1" height="121.08" style="fill: rgb(235, 235, 235); transform-origin: 348.08px 169.15px; transform: rotate(180deg);" class="animable"></rect></g><rect x="344.94" y="130.48" width="1" height="16.88" style="fill: rgb(224, 224, 224); transform-origin: 345.44px 138.92px;" id="elqk9vajybtvp" class="animable"></rect><polygon points="307.55 201.72 306.55 201.72 306.55 146.87 378.81 146.87 378.81 178.55 377.81 178.55 377.81 147.87 307.55 147.87 307.55 201.72" style="fill: rgb(224, 224, 224); transform-origin: 342.68px 174.295px;" id="elmky1xq7dku" class="animable"></polygon><polygon points="399.55 195.72 398.55 195.72 398.55 179.05 360.38 179.05 360.38 195.14 359.38 195.14 359.38 178.05 399.55 178.05 399.55 195.72" style="fill: rgb(224, 224, 224); transform-origin: 379.465px 186.885px;" id="elqtc86wcijiq" class="animable"></polygon><rect x="327.42" y="124.28" width="36.04" height="12.41" style="fill: rgb(245, 245, 245); transform-origin: 345.44px 130.485px;" id="elixw6v2sfpfj" class="animable"></rect><rect x="361.67" y="154.05" width="34.35" height="13.48" style="fill: rgb(245, 245, 245); transform-origin: 378.845px 160.79px;" id="ele4dcrt69gmj" class="animable"></rect><rect x="348.08" y="188.19" width="23.59" height="13.9" style="fill: rgb(245, 245, 245); transform-origin: 359.875px 195.14px;" id="eltjcb5l729q" class="animable"></rect><rect x="386.42" y="190.44" width="25.27" height="10.56" style="fill: rgb(245, 245, 245); transform-origin: 399.055px 195.72px;" id="el9y09hwxhzvq" class="animable"></rect><rect x="290.47" y="156.9" width="39.03" height="18.01" style="fill: rgb(245, 245, 245); transform-origin: 309.985px 165.905px;" id="el3h29imjjc9n" class="animable"></rect><rect x="294.59" y="195.14" width="24.92" height="13.16" style="fill: rgb(245, 245, 245); transform-origin: 307.05px 201.72px;" id="eloerfwh2s3sn" class="animable"></rect><g id="elxuvfbd8g70s"><rect x="341.64" y="144" width="7.61" height="7.61" style="fill: rgb(245, 245, 245); transform-origin: 345.445px 147.805px; transform: rotate(45deg);" class="animable"></rect></g><g id="el7lb9e2jkpr8"><rect x="374.51" y="174.74" width="7.61" height="7.61" style="fill: rgb(245, 245, 245); transform-origin: 378.315px 178.545px; transform: rotate(45deg);" class="animable"></rect></g><path d="M95.3,362.32a2.4,2.4,0,0,0-1.92-3.43,5.1,5.1,0,0,0-1.62-5.58,1.18,1.18,0,0,0-.7-.31,1.34,1.34,0,0,0-.75.33l-4.47,3.21a2.59,2.59,0,0,0-.89.88c-.91,1.77,2.38,4,1,5.5-.38.42-1,.5-1.5.81-1.06.66-1.19,2.12-1.68,3.27s-2.23,2.05-2.89,1c.49-1.1-1-2.05-2.19-2.19s-2.45-.21-3.12-1.34c-1.7,1.49-5.51-2.66-5.42-4.33a3.26,3.26,0,0,0-2.66,2.72,20.08,20.08,0,0,0-.15,4.18c0,2.71-.91,5.36-.87,8.07,0,2.11.86,4.46,2.79,5.3a7.36,7.36,0,0,0,3,.41l22-.14a3.52,3.52,0,0,0,1.55-.26c1-.52,1.2-1.82,1.29-2.94q.6-7.17,1.19-14.33Z" style="fill: rgb(224, 224, 224); transform-origin: 81.3794px 366.919px;" id="elyh2c4y348g" class="animable"></path><path d="M96.58,339.07H62.46l.28,3.45.2,2.46.52,6.41.3,3.68.39,4.9.17,2.1.05.62.2,2.47.28,3.38.16,2.1.18,2.14.2,2.47.15,1.87.17,2.1.07.91H97.1l.07-.91.17-2.1.15-1.88.2-2.47.18-2.13.17-2.1.27-3.39.2-2.46,0-.62.17-2.1.4-4.9.3-3.68.51-6.41.2-2.46.28-3.45Zm2,2.26h0l-.66-.65h.72Zm-.17,2.1-.06.83-3.06,3.05-3.5-3.5L95,340.68h.73Zm-.88,10.92-2.24,2.23-3.5-3.5,3.5-3.5L97.77,352ZM65.11,352h0l2.42-2.42,3.5,3.5-3.5,3.5-2.23-2.23Zm29.1-3.56L90.71,352l-3.5-3.51,3.5-3.5Zm-5.5-7.76h4l-2,2Zm.86,12.4-3.49,3.5-3.51-3.5,3.51-3.5Zm-11.63,4.63,3.5-3.49,3.5,3.49-3.5,3.51Zm2.36,4.64-3.5,3.5-3.5-3.5,3.51-3.5Zm5.78-3.5,3.49,3.5-3.49,3.5-3.51-3.5ZM81.44,352l-3.5-3.51,3.5-3.5,3.5,3.5Zm-1.14,1.13-3.49,3.5-3.51-3.5,3.51-3.5ZM72.17,352l-3.5-3.51,3.5-3.5,3.5,3.5Zm0,2.27,3.5,3.49-3.5,3.51-3.5-3.51ZM75.67,367l-3.5,3.49L68.67,367l3.5-3.5Zm1.13,1.13,3.5,3.5-3.49,3.51-3.51-3.51ZM77.94,367l3.5-3.5,3.5,3.5-3.5,3.49Zm8.14,1.13,3.49,3.5-3.49,3.51-3.51-3.51Zm4.63,4.63,3.5,3.51-2.27,2.27H89.48l-2.27-2.27ZM87.21,367l3.5-3.5,3.5,3.5-3.5,3.49Zm0-9.28,3.5-3.49,3.5,3.49-3.5,3.51Zm2.36-13.9-3.49,3.5-3.51-3.5,3.14-3.13h.73Zm-8.13-1.13-2-2h4Zm-1.14,1.13-3.49,3.5-3.51-3.5,3.14-3.13h.74Zm-6.13-3.13-2,2-2-2Zm-6.27,0L71,343.81l-3.5,3.5-3-3.05-.06-.83,2.74-2.75Zm-3,0-.65.64h0l0-.64Zm-.22,6.05,1.72,1.71-1.46,1.46Zm1,11.74-.14-1.66h0l.9.9-.76.76Zm.17,2.11,1.72-1.73,3.5,3.5-3.5,3.5-1.41-1.41Zm.52,6.48v-.15l.08.08-.07.07Zm.61,7.47-.44-5.38,1-1,3.5,3.5-3.5,3.5-.59-.59Zm.32,4-.07-.81.34-.33,1.14,1.14Zm1.41-2.27,3.5-3.51,3.5,3.51-2.27,2.27H70.93Zm7,2.27,1.14-1.14L78,378.53Zm4.54,0-2.27-2.27,3.5-3.51,3.5,3.51-2.26,2.27Zm4.73,0,1.14-1.14,1.13,1.14Zm10.68,0H94.21l1.13-1.14.34.33Zm.33-4-.61.59-3.5-3.5,3.5-3.5,1,1Zm.61-7.63v.16l-.08-.07.09-.09Zm.2-2.46-1.42,1.41-3.5-3.5,3.5-3.5,1.74,1.73Zm.48-6-.77-.77.91-.9Zm1-11.76-.26,3.19-1.47-1.47,1.73-1.72Z" style="fill: rgb(230, 230, 230); transform-origin: 81.415px 359.6px;" id="elllqfwmtrsl" class="animable"></path><g id="elthpf9v38u8o"><rect x="60.27" y="337.64" width="42.33" height="4.46" rx="1.64" style="fill: rgb(240, 240, 240); transform-origin: 81.435px 339.87px; transform: rotate(180deg);" class="animable"></rect></g><rect x="63.32" y="377.73" width="36.23" height="4.46" rx="1.64" style="fill: rgb(240, 240, 240); transform-origin: 81.435px 379.96px;" id="elgcget5as458" class="animable"></rect><g id="elelhsojmb32v"><path d="M212.54,310.92H276a0,0,0,0,1,0,0v3.25a5,5,0,0,1-5,5H217.54a5,5,0,0,1-5-5v-3.25A0,0,0,0,1,212.54,310.92Z" style="fill: rgb(224, 224, 224); transform-origin: 244.27px 315.045px; transform: rotate(180deg);" class="animable"></path></g><path d="M273.94,366.14l-20.33-2V335.56h-8.06v28.58l-20.42,2a4,4,0,0,0-3.57,3.94v3.06h56v-3.06A4,4,0,0,0,273.94,366.14Z" style="fill: rgb(224, 224, 224); transform-origin: 249.56px 354.35px;" id="el31kw6jhtee8" class="animable"></path><path d="M229,376.92a5.27,5.27,0,1,1-5.27-5.27A5.27,5.27,0,0,1,229,376.92Z" style="fill: rgb(224, 224, 224); transform-origin: 223.73px 376.92px;" id="el5c2aevjz46v" class="animable"></path><path d="M270.09,376.92a5.27,5.27,0,1,0,5.27-5.27A5.27,5.27,0,0,0,270.09,376.92Z" style="fill: rgb(224, 224, 224); transform-origin: 275.36px 376.92px;" id="elgc2j1w1aly8" class="animable"></path><path d="M244.16,316.25H255a0,0,0,0,1,0,0v21.32a4.13,4.13,0,0,1-4.13,4.13h-2.57a4.13,4.13,0,0,1-4.13-4.13V316.25A0,0,0,0,1,244.16,316.25Z" style="fill: rgb(230, 230, 230); transform-origin: 249.58px 328.975px;" id="elbv8ipi4w99j" class="animable"></path><path d="M238.87,311.45A351.18,351.18,0,0,0,249.34,237a10.46,10.46,0,0,1,10.46-10.05h18.77A10.45,10.45,0,0,1,289,237.32c.08,17.09-1.12,52-10.76,80.43l-35.7-1.31A4,4,0,0,1,238.87,311.45Z" style="fill: rgb(235, 235, 235); transform-origin: 263.874px 272.35px;" id="elftpv8izpsna" class="animable"></path><path d="M243.92,315.85a369,369,0,0,0,11.22-77.67,9.65,9.65,0,0,1,9.65-9.27H282.1a9.65,9.65,0,0,1,9.65,9.6c.07,15.77-1,51.14-9.92,77.34Z" style="fill: rgb(230, 230, 230); transform-origin: 267.837px 272.38px;" id="elmyo5h2oh0e" class="animable"></path><path d="M251.34,290.93s-20.56-4.16-40.42-2.14,9.34,28,9.34,28h4.1s-15.47-16.45-14.61-20.55,39.83,1.3,39.83,1.3Z" style="fill: rgb(230, 230, 230); transform-origin: 227.67px 302.513px;" id="eluycehbw4a6" class="animable"></path><path d="M281.82,315.85H248.15a368.57,368.57,0,0,0,11.23-77.67,9.64,9.64,0,0,1,9.65-9.27h13.06a9.66,9.66,0,0,1,9.67,9.6C291.82,254.27,290.72,289.65,281.82,315.85Z" style="fill: rgb(224, 224, 224); transform-origin: 269.956px 272.38px;" id="elpinj52e6bil" class="animable"></path><g id="elefocpoqhubn"><rect x="210.28" y="315.05" width="72.23" height="4.13" rx="2.01" style="fill: rgb(224, 224, 224); transform-origin: 246.395px 317.115px; transform: rotate(180deg);" class="animable"></rect></g><path d="M401.07,341.64c.19-1.29,4.58-31.56-4.21-42a9.51,9.51,0,0,0-7.29-3.59c-17.74-.42-20.17,13.83-20.19,14l2.09.32c.08-.51,2.18-12.57,18-12.18a7.35,7.35,0,0,1,5.73,2.84c8.18,9.72,3.79,40,3.74,40.32Z" style="fill: rgb(235, 235, 235); transform-origin: 385.856px 318.84px;" id="ely78o5yeqzic" class="animable"></path><path d="M402.15,340.26l2.11-.07c0-.28-.7-27.89,12.9-33.59,13.34-5.59,19.34,5.89,19.58,6.39l1.9-.95c-.07-.14-7.11-13.76-22.29-7.4C401.4,310.91,402.11,339.06,402.15,340.26Z" style="fill: rgb(235, 235, 235); transform-origin: 420.387px 321.605px;" id="elerlyo09kvkt" class="animable"></path><path d="M402.09,342.43c0-.44.12-44.11,8.64-56.89,8.17-12.26,21.36-6.49,21.92-6.23l.87-1.93c-.15-.07-15.37-6.79-24.55,7-8.87,13.3-9,56.23-9,58.05Z" style="fill: rgb(235, 235, 235); transform-origin: 416.745px 309.056px;" id="elgb2w4uhl42g" class="animable"></path><path d="M387,297.09s7.74,2.85,5.44,9.6-26.8,17.83-26.8,17.83-10.25-9.4-.83-24.69S386.82,292.26,387,297.09Z" style="fill: rgb(224, 224, 224); transform-origin: 376.848px 307.662px;" id="elz5lvr2ygtyd" class="animable"></path><path d="M411.11,283.24s-5.5-.59-5.06-3.94,21.38-12,33.73,2c0,0-7.9,13.59-19.34,13.77S411.11,283.24,411.11,283.24Z" style="fill: rgb(224, 224, 224); transform-origin: 422.902px 284.323px;" id="el1pu63fi0und" class="animable"></path><path d="M416.76,305.62s-3.8-3.06.3-4.56,24.19-1.07,24.4,18.84c0,0-23.41,3.89-26.31-3.7S416.76,305.62,416.76,305.62Z" style="fill: rgb(224, 224, 224); transform-origin: 427.819px 310.714px;" id="elazcbfgsnszn" class="animable"></path><polygon points="382.87 382.19 419.19 382.19 423.11 342.43 378.95 342.43 382.87 382.19" style="fill: rgb(235, 235, 235); transform-origin: 401.03px 362.31px;" id="elppqk62i7v5j" class="animable"></polygon><g id="eldn84cwmt0ik"><rect x="377.01" y="338.04" width="48.04" height="8.78" style="fill: rgb(224, 224, 224); transform-origin: 401.03px 342.43px; transform: rotate(180deg);" class="animable"></rect></g></g><g id="freepik--Shadow--inject-93" class="animable" style="transform-origin: 250px 416.24px;"><ellipse id="freepik--path--inject-93" cx="250" cy="416.24" rx="193.89" ry="11.32" style="fill: rgb(245, 245, 245); transform-origin: 250px 416.24px;" class="animable"></ellipse></g><g id="freepik--Puzzle--inject-93" class="animable" style="transform-origin: 285.456px 285.565px;"><rect x="234.19" y="153.34" width="142.74" height="258.35" style="fill: rgb(64, 123, 255); transform-origin: 305.56px 282.515px;" id="el09gklfz7hs09" class="animable"></rect><g id="el1jkzj32ymnt"><rect x="318.99" y="153.34" width="57.94" height="258.35" style="opacity: 0.2; isolation: isolate; transform-origin: 347.96px 282.515px; transform: rotate(180deg);" class="animable"></rect></g><g id="elbochauu18mw"><polygon points="355.32 252.94 340.6 252.94 330.19 266.8 330.19 286.41 340.6 300.27 355.32 300.27 365.73 286.41 365.73 266.8 355.32 252.94" style="opacity: 0.5; isolation: isolate; transform-origin: 347.96px 276.605px;" class="animable"></polygon></g><polygon points="341.06 299.35 331.12 286.1 331.12 267.11 341.06 253.87 354.86 253.87 364.81 267.11 364.81 286.1 354.86 299.35 341.06 299.35" style="fill: rgb(64, 123, 255); transform-origin: 347.965px 276.61px;" id="elutxkbl2kxrd" class="animable"></polygon><g id="elkutxqfdtsr"><polygon points="300.81 192.54 288.7 213.51 264.48 213.51 252.38 192.54 264.48 171.57 288.7 171.57 300.81 192.54" style="opacity: 0.2; isolation: isolate; transform-origin: 276.595px 192.54px;" class="animable"></polygon></g><g id="elpqpfzk49km"><rect x="256.69" y="256.71" width="39.8" height="39.8" style="opacity: 0.2; isolation: isolate; transform-origin: 276.59px 276.61px; transform: rotate(90deg);" class="animable"></rect></g><g id="el7w1bt0rqdir"><path d="M300.35,357a23.75,23.75,0,0,1-21.45,23.64,21.91,21.91,0,0,1-2.31.12,23.76,23.76,0,1,1,0-47.52,21.91,21.91,0,0,1,2.31.12A23.75,23.75,0,0,1,300.35,357Z" style="opacity: 0.2; isolation: isolate; transform-origin: 276.578px 357px;" class="animable"></path></g><g id="el8906hdhczuc"><polygon points="367.6 215.99 328.32 215.99 344.73 178.06 347.96 170.58 367.6 215.99" style="opacity: 0.2; isolation: isolate; transform-origin: 347.96px 193.285px;" class="animable"></polygon></g><g id="elf6vi9pamga"><polygon points="361.14 215.99 328.32 215.99 344.73 178.06 361.14 215.99" style="opacity: 0.5; isolation: isolate; transform-origin: 344.73px 197.025px;" class="animable"></polygon></g><g id="ely1odxpa2s3d"><polygon points="366.22 348.71 359.24 380.77 336.68 380.77 329.71 348.71 344.26 332.9 347.96 328.89 366.22 348.71" style="opacity: 0.2; isolation: isolate; transform-origin: 347.965px 354.83px;" class="animable"></polygon></g><g id="el9mku6ahlnd6"><polygon points="358.83 348.71 351.85 380.77 336.68 380.77 329.71 348.71 344.26 332.9 358.83 348.71" style="opacity: 0.5; isolation: isolate; transform-origin: 344.27px 356.835px;" class="animable"></polygon></g><g id="el9iczfhqely"><polygon points="358.83 348.71 366.22 348.71 347.96 328.89 344.26 332.9 358.83 348.71" style="opacity: 0.2; isolation: isolate; transform-origin: 355.24px 338.8px;" class="animable"></polygon></g><g id="elphyg55ick3"><polygon points="300.81 192.54 288.7 213.51 269.1 213.51 257 192.54 269.1 171.57 288.7 171.57 300.81 192.54" style="opacity: 0.5; isolation: isolate; transform-origin: 278.905px 192.54px;" class="animable"></polygon></g><g id="eldfsdwe1kxxh"><path d="M300.35,357a23.75,23.75,0,0,1-21.45,23.64,23.75,23.75,0,0,1,0-47.28A23.75,23.75,0,0,1,300.35,357Z" style="opacity: 0.5; isolation: isolate; transform-origin: 278.892px 357px;" class="animable"></path></g><g id="elwsbai1ccym"><rect x="259.6" y="259.34" width="39.8" height="34.53" style="opacity: 0.5; isolation: isolate; transform-origin: 279.5px 276.605px; transform: rotate(90deg);" class="animable"></rect></g><g id="el8f6c2khivni"><path d="M234.19,366.47c0,.82,20.56,21.74,20.56,21.74l-2.89,21.24H234.19Z" style="opacity: 0.2; isolation: isolate; transform-origin: 244.47px 387.96px;" class="animable"></path></g><path d="M384.56,411.26v6.53h-158v-6.53a2.76,2.76,0,0,1,2.77-2.77H381.8A2.76,2.76,0,0,1,384.56,411.26Z" style="fill: rgb(38, 50, 56); transform-origin: 305.56px 413.14px;" id="elagspw88yxvl" class="animable"></path><g id="el39h0zs1ntip"><path d="M384.56,411.26v6.53H319v-6.53a2.76,2.76,0,0,1,2.77-2.77H381.8A2.76,2.76,0,0,1,384.56,411.26Z" style="opacity: 0.2; isolation: isolate; transform-origin: 351.78px 413.14px;" class="animable"></path></g><polygon points="233.16 368.84 227.42 365.28 202.23 380.7 197.57 410.95 203.31 414.51 225.63 417.79 244.08 389.57 233.16 368.84" style="fill: rgb(64, 123, 255); transform-origin: 220.825px 391.535px;" id="el59ed56ex2ti" class="animable"></polygon><g id="el21ltn171ozy"><polygon points="238.35 386 219.9 414.23 197.57 410.95 202.23 380.7 222.32 368.4 227.42 365.28 238.35 386" style="fill: rgb(255, 255, 255); opacity: 0.3; transform-origin: 217.96px 389.755px;" class="animable"></polygon></g><g id="ela2i6yw0ifwi"><polygon points="219.9 414.23 225.63 417.79 203.31 414.51 197.57 410.95 219.9 414.23" style="opacity: 0.2; isolation: isolate; transform-origin: 211.6px 414.37px;" class="animable"></polygon></g><g id="el485h2moedtx"><polygon points="227.42 365.28 238.35 386 244.08 389.57 233.16 368.84 227.42 365.28" style="fill: rgb(255, 255, 255); opacity: 0.2; transform-origin: 235.75px 377.425px;" class="animable"></polygon></g><path d="M201.93,386.36c-.22-.42-4.5-5.94-4.79-6.33-4.86-6.54-17.34-5.5-27.87,2.33s-15.12,19.47-10.26,26c.29.39,4.63,5.87,5,6.21,5.39,5.3,17,3.95,26.92-3.42S205.45,393.06,201.93,386.36Z" style="fill: rgb(64, 123, 255); transform-origin: 180.088px 396.756px;" id="elsvywgw8xpw8" class="animable"></path><g id="elrm0fsl06fcm"><path d="M186.88,406c-9.91,7.37-21.53,8.73-26.92,3.42a9.05,9.05,0,0,1-1-1.09c-4.86-6.54-.27-18.19,10.26-26s23-8.87,27.87-2.33a9.24,9.24,0,0,1,.77,1.22C201.43,387.94,196.79,398.68,186.88,406Z" style="fill: rgb(255, 255, 255); opacity: 0.4; transform-origin: 178.039px 394.171px;" class="animable"></path></g><polygon points="413.89 412.79 383.96 367.88 376.96 372.88 375.42 380.28 367.6 417.79 406.89 417.79 413.89 412.79" style="fill: rgb(64, 123, 255); transform-origin: 390.745px 392.835px;" id="elbs4xn6yfmp" class="animable"></polygon><polygon points="413.89 412.79 374.6 412.79 382.42 375.28 383.96 367.88 413.89 412.79" style="fill: rgb(64, 123, 255); transform-origin: 394.245px 390.335px;" id="el5jcjbxbvr9m" class="animable"></polygon><g id="el2bhtxcfifaa"><polygon points="367.6 417.79 374.6 412.79 413.89 412.79 406.89 417.79 367.6 417.79" style="opacity: 0.3; isolation: isolate; transform-origin: 390.745px 415.29px;" class="animable"></polygon></g><g id="el3le5ko0cfic"><polygon points="413.89 412.79 374.6 412.79 382.42 375.28 383.96 367.88 413.89 412.79" style="fill: rgb(255, 255, 255); opacity: 0.3; transform-origin: 394.245px 390.335px;" class="animable"></polygon></g></g><g id="freepik--speech-bubble--inject-93" class="animable" style="transform-origin: 89.5747px 150.605px;"><circle cx="88.11" cy="144.75" r="17.32" style="fill: rgb(64, 123, 255); transform-origin: 88.11px 144.75px;" id="elo31wq16w81b" class="animable"></circle><path d="M94.43,164.86a4.07,4.07,0,1,0,4.06-4.06A4.07,4.07,0,0,0,94.43,164.86Z" style="fill: rgb(64, 123, 255); transform-origin: 98.5px 164.87px;" id="el2h7aimp9nky" class="animable"></path><path d="M100.81,170.23a2.17,2.17,0,1,0,2.17-2.17A2.17,2.17,0,0,0,100.81,170.23Z" style="fill: rgb(64, 123, 255); transform-origin: 102.98px 170.23px;" id="elsddqo7mbnnd" class="animable"></path><path d="M105.58,172.35A1.39,1.39,0,1,0,107,171,1.39,1.39,0,0,0,105.58,172.35Z" style="fill: rgb(64, 123, 255); transform-origin: 106.969px 172.39px;" id="elw1d6jyrij" class="animable"></path><g id="el4v5z92hq4hh"><g style="opacity: 0.6; isolation: isolate; transform-origin: 88.11px 144.75px;" class="animable"><circle cx="88.11" cy="144.75" r="17.32" style="fill: rgb(255, 255, 255); transform-origin: 88.11px 144.75px;" id="eldxzgoxsk91o" class="animable"></circle></g></g><g id="elgz1ntt6cqw6"><g style="opacity: 0.8; isolation: isolate; transform-origin: 98.5px 164.87px;" class="animable"><path d="M94.43,164.86a4.07,4.07,0,1,0,4.06-4.06A4.07,4.07,0,0,0,94.43,164.86Z" style="fill: rgb(255, 255, 255); transform-origin: 98.5px 164.87px;" id="elu9raag1wjag" class="animable"></path></g></g><g id="elgxwa2kv1hc8"><g style="opacity: 0.8; isolation: isolate; transform-origin: 102.98px 170.23px;" class="animable"><path d="M100.81,170.23a2.17,2.17,0,1,0,2.17-2.17A2.17,2.17,0,0,0,100.81,170.23Z" style="fill: rgb(255, 255, 255); transform-origin: 102.98px 170.23px;" id="elpxjx7wu0h5" class="animable"></path></g></g><g id="eleb9oigjipvo"><g style="opacity: 0.8; isolation: isolate; transform-origin: 106.969px 172.39px;" class="animable"><path d="M105.58,172.35A1.39,1.39,0,1,0,107,171,1.39,1.39,0,0,0,105.58,172.35Z" style="fill: rgb(255, 255, 255); transform-origin: 106.969px 172.39px;" id="eltns90u2gjej" class="animable"></path></g></g><g id="elasf1yi57tyj"><path d="M86.46,149.76c-.08-1.16-.08-1.27-.08-1.37,0-3.25,3.25-5.14,3.25-7.95A2.32,2.32,0,0,0,87,138a3.93,3.93,0,0,0-3.22,1.68l-.73-2.38a4.88,4.88,0,0,1,4.15-1.85,5.17,5.17,0,0,1,5.46,4.94c0,3.14-4,5.27-4,9v.33Zm-.52,5.2v-3.22h3.22V155Z" style="fill: rgb(38, 50, 56); opacity: 0.6; isolation: isolate; transform-origin: 87.855px 145.22px;" class="animable"></path></g></g><g id="freepik--Character--inject-93" class="animable" style="transform-origin: 134.845px 289.765px;"><path d="M130.64,176.13a5.44,5.44,0,0,1,.92,1.07c1.68,2.52,3.41,6.18,2.47,9.25-1.35,4.36-1,11.35,2.18,13.76s3.83,4.81,3.17,7.32,2.19,6,4.37,5v3a4.65,4.65,0,0,1-5.57-1.1c-2.53-2.75-2.08-4.34-2.41-7.38a4.43,4.43,0,0,0-3.41-3.7s1.84,1.89,1.88,3.7-1.2,9.6.33,10.71c0,0-16.11,7.57-23,6.14s-12-9.47-12-9.47-1.1-6,2.84-7.38,9-2.28,6.88-5.56a10.77,10.77,0,0,1-1.22-6.74,66.16,66.16,0,0,0-.18-8.2,11.32,11.32,0,0,1,.11-2.73,11.83,11.83,0,0,1,1-2.64l1-2.17a6.31,6.31,0,0,1,2.27-2.45c.94-.79,1.22-1.93,2.39-2.56a9.59,9.59,0,0,1,3.63-.88,27.37,27.37,0,0,1,3.26-.16C124.33,173.07,128.36,174,130.64,176.13Z" style="fill: rgb(38, 50, 56); transform-origin: 121.589px 198.519px;" id="el1hsac3zr386" class="animable"></path><path d="M155.45,213.89l1.83-5.32s-.37-2.57-.7-3.68,5.53-6.36,5.53-6.36l4.24,4.32s-5.24,6.13-5.84,6.11l-1.89,6.54Z" style="fill: rgb(238, 193, 187); transform-origin: 160.9px 207.015px;" id="ele2vtybx9m3t" class="animable"></path><path d="M160.34,211.91s-4.24,19-7.8,21c-2,1.13-6.36-1.48-9.79-4-2.69-2-4.82-3.86-4.82-3.86l.35-4.29.56-6.92c2.64,1.52,9.68,12.42,10.77,12.32s7-16.59,7-16.59Z" style="fill: rgb(64, 123, 255); transform-origin: 149.135px 221.376px;" id="el1ktlxs3uuqn" class="animable"></path><g id="el8ccaa71l57l"><path d="M142.75,229c-2.69-2-4.82-3.86-4.82-3.86l.35-4.29C140,222.24,143,225.34,142.75,229Z" style="opacity: 0.2; isolation: isolate; transform-origin: 140.347px 224.925px;" class="animable"></path></g><path d="M102.3,397.5l4.21,2.47a80.67,80.67,0,0,1,6.4-7.58h0c1.22-1.29,2.5-2.72,3.83-4.25,2.67-3.06,5.55-6.56,8.58-10.31l2.71-3.39c10.53-13.26,21.92-28.84,26.18-39.38,1.33-3.27,2-6.05,1.69-8.14-.87-6.29-3.32-15.76-6.11-24.91-4.26-14-9-27.24-9-27.24L129,294.67s3.61,8.6,6.9,17.76c3.23,9,6.15,18.54,5.07,21l-.38.84c-2,4-7.36,13.2-13.5,23.32-.61,1-1.24,2.05-1.87,3.07-3.29,5.41-6.72,11-9.89,16.06l-3.58,5.77C106.33,391.19,102.3,397.5,102.3,397.5Z" style="fill: rgb(238, 193, 187); transform-origin: 129.137px 337.37px;" id="elpnwashuew98" class="animable"></path><g id="el6ip4e499b5h"><path d="M128.27,374.43c-5.57,7-10.91,13.33-14.88,17.95-.57-2.84-1.14-6.21-1.6-9.87,4.6-7.38,10.22-16.48,15.32-24.9A96.71,96.71,0,0,0,128.27,374.43Z" style="opacity: 0.2; isolation: isolate; transform-origin: 120.03px 374.995px;" class="animable"></path></g><path d="M107.28,316.8c1.46,9.93,3.53,18.92,4.88,24.28.82,3.22,1.36,5.12,1.36,5.12a271.41,271.41,0,0,0,1.8,30.54c.44,4,.92,7.82,1.42,11.39,1.83,13.19,3.76,22.66,3.76,22.66l5-.65-.19-32.32-.11-17.14-.14-23.31,0-4.06-.24-17.73-.36-26.14L107,281.6C104.65,291.53,105.52,304.85,107.28,316.8Z" style="fill: rgb(238, 193, 187); transform-origin: 115.535px 346.195px;" id="elyv0i6dc1kkq" class="animable"></path><path d="M102.69,394.75c.51-.38,4.85,6.12,4.85,6.12s-1,6.78,1,11.15-1.85,4-5-.14L95.7,401.64C93.45,398.69,97.36,398.62,102.69,394.75Z" style="fill: rgb(38, 50, 56); transform-origin: 102.071px 404.939px;" id="elvzj02eno75" class="animable"></path><path d="M109,405.78c-1-.23-1.63-3-1.74-3.6a.11.11,0,0,1,0-.08h0a.14.14,0,0,1,0-.07h0l0,0h0l.08,0c.09,0,1.92-.61,2.91,0a1.24,1.24,0,0,1,.59.82q.12.58-.21.81c-.34.23-1,0-1.66-.26a3.16,3.16,0,0,1,.91,1.5.85.85,0,0,1-.16.65.82.82,0,0,1-.64.38Zm.09-.4s.17,0,.36-.21a.39.39,0,0,0,.08-.34c-.08-.65-1.05-1.59-1.74-2.16C108.11,403.87,108.64,405.27,109.1,405.38ZM108,402.22c1,.65,2.21,1.17,2.5,1,.09-.06.06-.27,0-.38a.76.76,0,0,0-.4-.55,1.86,1.86,0,0,0-.94-.2A5.2,5.2,0,0,0,108,402.22Z" style="fill: rgb(64, 123, 255); transform-origin: 109.062px 403.844px;" id="elggw14bij0fd" class="animable"></path><path d="M118.72,407.6c0-.64,7.82-.14,7.82-.14s4.8,4.88,9.46,6,2.05,3.89-3.16,3.89H120C116.25,417.33,118.57,414.18,118.72,407.6Z" style="fill: rgb(38, 50, 56); transform-origin: 128.149px 412.312px;" id="el2ypwwbzicbk" class="animable"></path><path d="M127.41,408.47l-.07-.05h0l0-.06h0a.14.14,0,0,1,0-.06h0a.22.22,0,0,1,0-.08c0-.09.69-1.9,1.74-2.34a1.19,1.19,0,0,1,1,0c.36.17.53.39.52.66s-.58.82-1.22,1.16a3.12,3.12,0,0,1,1.75.19.82.82,0,0,1,.42.53.75.75,0,0,1-.19.83,1.09,1.09,0,0,1-.69.18A9.91,9.91,0,0,1,127.41,408.47Zm.71-.13c1.15.48,2.58.91,2.95.61,0,0,.13-.11.05-.41a.43.43,0,0,0-.22-.28,2,2,0,0,0-.92-.17A9.27,9.27,0,0,0,128.12,408.34Zm1.08-2.09a3.39,3.39,0,0,0-1.33,1.68c1.15-.44,2.27-1.05,2.29-1.4,0-.1-.18-.21-.28-.26a.94.94,0,0,0-.36-.08A.91.91,0,0,0,129.2,406.25Z" style="fill: rgb(64, 123, 255); transform-origin: 129.47px 407.602px;" id="elvf9fy4e10v" class="animable"></path><path d="M152,292.06l-21.41,7.61-.72-2-.88-2.42-.36,3.49-.28,2.67h-26s-.08-.75-.16-2.09a133.22,133.22,0,0,1,1-25.6,92.63,92.63,0,0,1,5.51-21.44c.22-.54.44-1.07.67-1.6l27.89-2.16.23,1.34,1.75,10,3.33,8.42,8.22,20.78Z" style="fill: rgb(64, 123, 255); transform-origin: 126.986px 274.965px;" id="elhwjqanb86cr" class="animable"></path><g id="elt28xm7njyda"><path d="M152,292.06l-21.41,7.61-.72-2-.88-2.42-.36,3.49-.28,2.67h-26s-.08-.75-.16-2.09a133.22,133.22,0,0,1,1-25.6,92.63,92.63,0,0,1,5.51-21.44c.22-.54.44-1.07.67-1.6l27.89-2.16.23,1.34,1.75,10,3.33,8.42,8.22,20.78Z" style="fill: rgb(255, 255, 255); opacity: 0.7; transform-origin: 126.986px 274.965px;" class="animable"></path></g><g id="elf70j7k4zn5v"><path d="M126.3,252.13a1.42,1.42,0,1,0,1.42-1.41A1.42,1.42,0,0,0,126.3,252.13Z" style="fill: rgb(255, 255, 255); opacity: 0.6; isolation: isolate; transform-origin: 127.72px 252.14px;" class="animable"></path></g><g id="elkayirayzad"><path d="M115.54,253.25s-3.17,17.47-12.3,20.51a92.63,92.63,0,0,1,5.51-21.44Z" style="opacity: 0.2; transform-origin: 109.39px 263.04px;" class="animable"></path></g><g id="el2eatj7cc28v"><path d="M142.62,268.34c-7.31-3.57-7.19-17.62-7.19-17.62l2.11-.82,1.75,10Z" style="opacity: 0.2; transform-origin: 139.025px 259.12px;" class="animable"></path></g><g id="elcoq36fpodmp"><path d="M128.63,298.78l-.28,2.67h-26s-.08-.75-.16-2.09Z" style="opacity: 0.2; transform-origin: 115.41px 300.115px;" class="animable"></path></g><g id="elg0cjpli2dad"><polygon points="152 292.06 130.59 299.67 129.87 297.7 150.84 289.12 152 292.06" style="opacity: 0.2; transform-origin: 140.935px 294.395px;" class="animable"></polygon></g><g id="el7g6f87v8g3"><path d="M129,295.3l.56-7.13,5.88-11.55s1.86,6.66-1.07,12.6S129,295.3,129,295.3Z" style="opacity: 0.2; transform-origin: 132.511px 285.96px;" class="animable"></path></g><polygon points="109.42 250.72 108.24 253.62 137.93 252.13 137.31 248.56 109.42 250.72" style="fill: rgb(38, 50, 56); isolation: isolate; transform-origin: 123.085px 251.09px;" id="elom6sr0gmika" class="animable"></polygon><path d="M125.09,249.64l.35,3.26a.66.66,0,0,0,.71.59l4.35-.35a.65.65,0,0,0,.6-.72l-.3-3.21a.67.67,0,0,0-.71-.6l-4.38.3A.66.66,0,0,0,125.09,249.64Z" style="fill: rgb(255, 255, 255); transform-origin: 128.095px 251.05px;" id="el8erl3524ob5" class="animable"></path><polygon points="117.81 250.03 117.47 253.87 116.39 253.87 116.56 250.03 117.81 250.03" style="fill: rgb(64, 123, 255); transform-origin: 117.1px 251.95px;" id="eloynxtzvwlzr" class="animable"></polygon><polygon points="133.45 248.86 133.88 252.88 134.88 252.88 134.53 248.69 133.45 248.86" style="fill: rgb(64, 123, 255); transform-origin: 134.165px 250.785px;" id="elr2srcl31os" class="animable"></polygon><g id="elugsurayo3t"><polygon points="117.81 250.03 117.47 253.87 116.39 253.87 116.56 250.03 117.81 250.03" style="fill: rgb(255, 255, 255); opacity: 0.7; transform-origin: 117.1px 251.95px;" class="animable"></polygon></g><g id="elml1pzz87ff"><polygon points="133.45 248.86 133.88 252.88 134.88 252.88 134.53 248.69 133.45 248.86" style="fill: rgb(255, 255, 255); opacity: 0.7; transform-origin: 134.165px 250.785px;" class="animable"></polygon></g><path d="M137.3,248.56l-27.88,2.15s.39-9-2.34-22.65c-.48-2.4-1-5-1.74-7.64-.61-2.34-1.31-4.78-2.1-7.29a22.61,22.61,0,0,1,4.34-1.56l0,0a58.77,58.77,0,0,1,13.43-1.9,33.85,33.85,0,0,1,13.81,2.1,16.24,16.24,0,0,1,4,2.14S140.23,227.71,137.3,248.56Z" style="fill: rgb(64, 123, 255); transform-origin: 121.2px 230.163px;" id="elv31jnz1t93n" class="animable"></path><path d="M123.72,216.71c-6.83-2.25-8.41-6-8.41-6,3.24-2.44,3.49-6.82,3.22-9.74a18.36,18.36,0,0,0-.48-2.93l8.14,3.27a28.8,28.8,0,0,0-.91,3.69c0,.07,0,.14,0,.22-.95,5.71,1.35,6.18,1.35,6.18C127.58,214.78,123.72,216.71,123.72,216.71Z" style="fill: rgb(238, 193, 187); transform-origin: 121.045px 207.375px;" id="el4hbvhwfae6p" class="animable"></path><g id="eloc2d22dkgi"><path d="M126.19,201.33a28.8,28.8,0,0,0-.91,3.69c-2.62.16-5-2-6.75-4a18.36,18.36,0,0,0-.48-2.93Z" style="opacity: 0.2; isolation: isolate; transform-origin: 122.12px 201.559px;" class="animable"></path></g><path d="M122.05,178.52c7-.39,9.53,3.27,10.44,10.51,1.15,9-.51,15.61-9.44,14.15C110.93,201.2,110.33,179.16,122.05,178.52Z" style="fill: rgb(238, 193, 187); transform-origin: 123.206px 190.937px;" id="elwqhnpbnpjx" class="animable"></path><path d="M127.91,188.88a15,15,0,0,0,2.21,2.81,1.92,1.92,0,0,1-1.81.9Z" style="fill: rgb(212, 130, 125); transform-origin: 129.015px 190.739px;" id="el8bg9eze6yvg" class="animable"></path><path d="M123.56,188.54c0,.58-.23,1.07-.61,1.1s-.74-.41-.78-1,.23-1.07.61-1.1S123.52,188,123.56,188.54Z" style="fill: rgb(38, 50, 56); transform-origin: 122.863px 188.59px;" id="eliev66ycup6b" class="animable"></path><path d="M122.62,187.59l1.22-.59S123.3,188.1,122.62,187.59Z" style="fill: rgb(38, 50, 56); transform-origin: 123.23px 187.362px;" id="elx5tbao3127" class="animable"></path><path d="M130.75,187.86c0,.58-.23,1.07-.62,1.1s-.73-.41-.78-1,.23-1.08.62-1.11S130.7,187.28,130.75,187.86Z" style="fill: rgb(38, 50, 56); transform-origin: 130.047px 187.905px;" id="el6ksue8brndi" class="animable"></path><path d="M129.81,186.91l1.22-.6S130.48,187.42,129.81,186.91Z" style="fill: rgb(38, 50, 56); transform-origin: 130.42px 186.677px;" id="elcw2492kundw" class="animable"></path><path d="M120.22,185.27a.36.36,0,0,1-.29-.57,4,4,0,0,1,3.32-1.39.37.37,0,0,1,.34.39.37.37,0,0,1-.39.34,3.28,3.28,0,0,0-2.68,1.08A.36.36,0,0,1,120.22,185.27Z" style="fill: rgb(38, 50, 56); transform-origin: 121.727px 184.285px;" id="eltlj1n7ebz4c" class="animable"></path><path d="M131.18,183.88a.29.29,0,0,1-.18,0,2.94,2.94,0,0,0-2.52-.4.37.37,0,0,1-.48-.19.38.38,0,0,1,.19-.48,3.66,3.66,0,0,1,3.17.45.36.36,0,0,1,.13.5A.37.37,0,0,1,131.18,183.88Z" style="fill: rgb(38, 50, 56); transform-origin: 129.758px 183.264px;" id="elx81bk5ynxq" class="animable"></path><path d="M127.43,195.43a18,18,0,0,0-.69,2.49l-.45,0c-2.07-.09-3-.82-3.39-1.59a2.73,2.73,0,0,1-.28-1.24,2.47,2.47,0,0,1,.1-.71,9.72,9.72,0,0,0,4,1Z" style="fill: rgb(38, 50, 56); transform-origin: 125.025px 196.15px;" id="el7ha9mp2pddo" class="animable"></path><path d="M126.73,195.38l-.22.73c-2-.09-3.3-.42-3.89-1a2.47,2.47,0,0,1,.1-.71A9.72,9.72,0,0,0,126.73,195.38Z" style="fill: rgb(255, 255, 255); transform-origin: 124.675px 195.255px;" id="elk45hs5gp0gs" class="animable"></path><path d="M126.29,197.9c-2.07-.09-3-.82-3.39-1.59a6.44,6.44,0,0,1,2.27.55A2.54,2.54,0,0,1,126.29,197.9Z" style="fill: rgb(222, 87, 83); transform-origin: 124.595px 197.105px;" id="elu75sma0q1um" class="animable"></path><path d="M115,190.83s3-6,2.24-10.42c0,0,13.66-6.48,15.13,7.67,0,0,.67-12.67-11.47-12.29s-11.11,18.12-4.56,23.06C116.33,198.85,113.15,194.57,115,190.83Z" style="fill: rgb(38, 50, 56); transform-origin: 121.962px 187.316px;" id="eln3lvds20cz" class="animable"></path><path d="M116.22,192.26a3.1,3.1,0,0,0-3.48-2.65c-2.17.36-3,4.9,2.53,5.68C116.05,195.41,116.45,194.62,116.22,192.26Z" style="fill: rgb(238, 193, 187); transform-origin: 113.683px 192.442px;" id="elsd914ygj7tj" class="animable"></path><path d="M117.23,180.41s7.47-1.4,11.11,1.23c0,0-3.62-4.56-11.47-2.18Z" style="fill: rgb(38, 50, 56); transform-origin: 122.605px 180.206px;" id="elahy7hoqfmqh" class="animable"></path><path d="M134.87,211.75c-.12,1.51-1.35,5.66-11.31,5.58-12.15-.09-16-5.76-16-5.76l0,0a58.77,58.77,0,0,1,13.43-1.9A33.85,33.85,0,0,1,134.87,211.75Z" style="fill: rgb(238, 193, 187); transform-origin: 121.215px 213.47px;" id="elb7z19bulsmj" class="animable"></path><polygon points="187.7 190.79 172.38 207.64 155.59 201.76 154.13 179.04 169.44 162.18 186.23 168.05 187.7 190.79" style="fill: rgb(64, 123, 255); transform-origin: 170.915px 184.91px;" id="elrebpw9a64a" class="animable"></polygon><g id="elxqzyobt0s2"><polygon points="183.86 189.44 168.54 206.29 155.59 201.76 154.13 179.04 169.44 162.18 182.39 166.71 183.86 189.44" style="fill: rgb(255, 255, 255); opacity: 0.4; transform-origin: 168.995px 184.235px;" class="animable"></polygon></g><g id="el618syid1vkf"><polygon points="183.86 189.44 187.7 190.79 172.38 207.64 168.54 206.29 183.86 189.44" style="opacity: 0.2; isolation: isolate; transform-origin: 178.12px 198.54px;" class="animable"></polygon></g><polygon points="119.76 234.99 95.53 229.94 90.11 230.31 81.99 269.27 106.21 274.32 111.64 273.95 119.76 234.99" style="fill: rgb(64, 123, 255); transform-origin: 100.875px 252.13px;" id="elzk6fio4mpz" class="animable"></polygon><g id="elotxqdfsv2sg"><polygon points="114.33 235.36 106.21 274.32 101.49 273.34 89.68 270.88 81.99 269.28 90.11 230.31 114.33 235.36" style="fill: rgb(255, 255, 255); opacity: 0.4; transform-origin: 98.16px 252.315px;" class="animable"></polygon></g><g id="eleg8qab9mi09"><polygon points="114.33 235.36 119.76 234.99 111.64 273.95 106.21 274.32 114.33 235.36" style="opacity: 0.2; isolation: isolate; transform-origin: 112.985px 254.655px;" class="animable"></polygon></g><g id="elu80vzwbdqji"><polygon points="90.11 230.31 114.33 235.36 119.76 234.99 95.53 229.94 90.11 230.31" style="fill: rgb(255, 255, 255); opacity: 0.2; transform-origin: 104.935px 232.65px;" class="animable"></polygon></g><g id="ellq6q6eskgjb"><path d="M101.49,273.31v0l-9.75-2c0-2.74,3.35-6.58,3.35-6.58S101,267.26,101.49,273.31Z" style="opacity: 0.2; isolation: isolate; transform-origin: 96.615px 269.02px;" class="animable"></path></g><path d="M96.2,260.37v5.69a3.88,3.88,0,0,1,2,1.55c.87,1.25,2.31,6,2.31,6s-4.82,1.63-5.5.91-2.22-5.44-2.51-6.12.68-2.32.68-2.32l.1-5.11Z" style="fill: rgb(238, 193, 187); transform-origin: 96.4779px 267.537px;" id="ell7lpy9a6e1" class="animable"></path><g id="elzwx1vv493gf"><path d="M107.08,228.06c-.48-2.4-1-5-1.74-7.64A9,9,0,0,1,107,220S108.88,225.81,107.08,228.06Z" style="opacity: 0.2; isolation: isolate; transform-origin: 106.6px 224.03px;" class="animable"></path></g><path d="M103.24,213.13c-2.42,1.28-10.1,22.66-10.56,24s0,25.88,0,25.88h4.57s1.19-22.83,1.46-24.17,8-15.69,8-15.69.82-3.56,0-5.85A11.21,11.21,0,0,0,103.24,213.13Z" style="fill: rgb(64, 123, 255); transform-origin: 99.775px 238.07px;" id="el7eu8x53316f" class="animable"></path><g id="elf24orthmmb7"><polygon points="119.44 226.1 132.81 224.98 126.99 237.5 119.44 226.1" style="fill: rgb(255, 255, 255); opacity: 0.7; transform-origin: 126.125px 231.24px;" class="animable"></polygon></g><g id="elm0z52g864f8"><polygon points="131.84 229.26 133.88 232.65 130.45 232.65 131.84 229.26" style="opacity: 0.2; isolation: isolate; transform-origin: 132.165px 230.955px;" class="animable"></polygon></g></g><defs>     <filter id="active" height="200%">         <feMorphology in="SourceAlpha" result="DILATED" operator="dilate" radius="2"></feMorphology>                <feFlood flood-color="#32DFEC" flood-opacity="1" result="PINK"></feFlood>        <feComposite in="PINK" in2="DILATED" operator="in" result="OUTLINE"></feComposite>        <feMerge>            <feMergeNode in="OUTLINE"></feMergeNode>            <feMergeNode in="SourceGraphic"></feMergeNode>        </feMerge>    </filter>    <filter id="hover" height="200%">        <feMorphology in="SourceAlpha" result="DILATED" operator="dilate" radius="2"></feMorphology>                <feFlood flood-color="#ff0000" flood-opacity="0.5" result="PINK"></feFlood>        <feComposite in="PINK" in2="DILATED" operator="in" result="OUTLINE"></feComposite>        <feMerge>            <feMergeNode in="OUTLINE"></feMergeNode>            <feMergeNode in="SourceGraphic"></feMergeNode>        </feMerge>            <feColorMatrix type="matrix" values="0   0   0   0   0                0   1   0   0   0                0   0   0   0   0                0   0   0   1   0 "></feColorMatrix>    </filter></defs></svg>